<?xml version='1.0' encoding='utf-8'?>
<svg xmlns="http://www.w3.org/2000/svg" fill="none" viewBox="0 0 24 24"> <path d="m17.757 7.1927c-1.3758-1.6458-3.4441-2.6927-5.757-2.6927-4.1421 0-7.5 3.3579-7.5 7.5 0 0.5121 0.05133 1.0123 0.14913 1.4956m14.651-3.2218c0.1305 0.5542 0.1996 1.1321 0.1996 1.7262 0 4.1421-3.3579 7.5-7.5 7.5-2.3862 0-4.5122-1.1144-5.8858-2.8511" stroke="#000" stroke-linecap="round"/> <path d="m18.125 5.5v2h-2" stroke="#000" stroke-linecap="round" stroke-linejoin="round"/> <path d="m7.875 16.5h-2v2" stroke="#000" stroke-linecap="round" stroke-linejoin="round"/> <path d="m12 8v8" stroke="#000" stroke-linecap="round"/> <path d="m13.81 10.152c-0.1197-0.53002-0.8036-1.1199-1.8039-1.1199-1.0002-1e-5 -1.7697 0.64974-1.7697 1.4705 0 1.8637 3.7104 0.9062 3.7104 3.0691 0 0.7818-0.9405 1.4448-1.9407 1.4448-1.0001 0-1.6928-0.6155-1.8979-1.2738" stroke="#000" stroke-linecap="round" stroke-linejoin="round"/> </svg>