<?xml version='1.0' encoding='utf-8'?>
<svg xmlns="http://www.w3.org/2000/svg" width="1e3" height="1e3" version="1.1" viewBox="0 0 264.58 264.58"> <rect x="-1.1369e-13" width="264.58" height="264.58" fill="#f7f7f7" style="paint-order:stroke markers fill"/> <path d="m83.647 66.151h77.721l27.837 34.072v98.209h-105.56z" fill="#fff"/> <path d="m82.848 65.484v133.61h107.16v-98.557l-28.884-35.057zm1.3229 1.3229h76.95v33.734h27.561v97.234h-104.51z" color="#000000" fill="#a1ccb5" stroke-width=".26458" style="-inkscape-stroke:none;paint-order:fill markers stroke"/> <rect x="71.586" y="78.322" width="77.611" height="26.458" rx="1.3229" ry="1.3229" fill="#207245" style="paint-order:fill markers stroke"/> <path d="m100.05 164.47h72.76" fill="none" stroke="#207245" stroke-linejoin="miter" stroke-miterlimit="4" stroke-width="3.175"/> <path d="m100.05 150.13h72.76" fill="none" stroke="#207245" stroke-linejoin="miter" stroke-miterlimit="4" stroke-width="3.175"/> <path d="m100.97 121.43v57.39h70.908v-57.39z" fill="none" stroke="#207245" stroke-linejoin="miter" stroke-miterlimit="4" stroke-width="3.175"/> <path d="m124.61 122.09v58.133" fill="none" stroke="#207245" stroke-linejoin="miter" stroke-miterlimit="4" stroke-width="3.175"/> <path d="m100.05 135.78h72.76" fill="none" stroke="#207245" stroke-linejoin="miter" stroke-miterlimit="4" stroke-width="3.175"/> <path d="m148.24 122.09v58.133" fill="none" stroke="#207245" stroke-linejoin="miter" stroke-miterlimit="4" stroke-width="3.175"/> <g fill="#fff" stroke-width=".26458" aria-label="XLS"> <path d="m91.829 97.633 4.4338-6.4613-3.9033-5.7223h2.3306l2.8233 4.3959 2.7664-4.3959h2.1601l-3.9222 5.7223 4.4338 6.4613h-2.3306l-3.3538-5.116-3.297 5.116z"/> <path d="m107.3 97.633v-12.184h1.8758v10.592h5.4191v1.5916z"/> <path d="m122.93 97.88q-1.1748 0-2.1411-0.45475-0.96635-0.4737-1.5348-1.3453-0.56844-0.89056-0.56844-2.1411h1.9516q0 1.0421 0.62528 1.6864 0.64423 0.64423 1.6674 0.64423 0.49265 0 1.0421-0.05684 0.54949-0.07579 1.0232-0.26527 0.49265-0.18948 0.79581-0.56844 0.32212-0.37896 0.32212-1.0042 0-0.75792-0.39791-1.1748-0.37896-0.4358-1.0232-0.64423-0.64424-0.22738-1.4211-0.36001-0.75792-0.15158-1.5348-0.32212-0.75792-0.18948-1.4022-0.53054-0.64424-0.36001-1.0422-0.9853-0.37896-0.64423-0.37896-1.7053 0-0.83371 0.37896-1.459 0.37897-0.64423 1.0042-1.08 0.64423-0.4358 1.3832-0.66318 0.75792-0.22738 1.478-0.22738 1.1179 0 2.1032 0.34106 1.0042 0.32212 1.6295 1.0611 0.64423 0.73897 0.64423 1.9706h-1.9138q0-0.73897-0.37896-1.1369-0.36001-0.39791-0.9474-0.53054-0.56844-0.13264-1.1937-0.13264-0.92845 0-1.6295 0.41686-0.68213 0.39791-0.68213 1.4022 0 0.64423 0.37896 1.0232 0.39791 0.36001 1.0421 0.56844 0.64424 0.20843 1.4022 0.37896 0.77687 0.15158 1.5348 0.36001 0.75792 0.20843 1.4022 0.58739 0.64423 0.37896 1.0232 1.0232 0.39791 0.64423 0.39791 1.6674 0 1.0232-0.45475 1.7432-0.45476 0.70108-1.1937 1.1369-0.73897 0.41686-1.6295 0.58739-0.89056 0.18948-1.7622 0.18948z"/> </g> </svg>