<?xml version='1.0' encoding='utf-8'?>
<svg xmlns="http://www.w3.org/2000/svg" width="106.87mm" height="80.371mm" version="1.1" viewBox="0 0 106.87 80.371"><g transform="translate(-61.359 -22.67)"><g transform="translate(0 -93.48)"><path d="m111.08 117.18c-1.6133 0.0313-3.3494 0.13893-4.4493 0.42323-2.4267 0.6272-6.8223 3.4902-6.8223 3.4902s-3.3918 0.88875-12.503 0.062c-2.8238-0.25624-8.291-1.9022-8.291-1.9022s-0.34709 5.2391 1.1038 7.1763c1.9081 2.5478 6.4756 6.1174 6.4756 6.1174s10.439 11.787 13.102 19.007c2.415 6.5486 2.3501 20.763 2.3501 20.763s-2.7906 2.844-3.1573 4.6167c-0.77982 4.7044 1.1116 14.333 6.1371 15.352l8.8336 0.0868v0.0186l0.93328-9e-3 0.93327 9e-3v-0.0186l8.8336-0.0868c5.0255-1.0192 6.9169-10.648 6.1371-15.352-0.36669-1.7728-3.8079-5.0071-3.8079-5.0071s0.58572-13.824 3.0007-20.373c2.6624-7.2196 13.102-19.007 13.102-19.007s4.5674-3.5697 6.4756-6.1174c1.4509-1.9372 1.1038-7.1763 1.1038-7.1763s-5.4672 1.646-8.291 1.9022c-9.1108 0.82674-12.503-0.062-12.503-0.062s-4.3956-2.863-6.8223-3.4902c-2.2-0.56859-6.9446-0.43203-8.1618-0.38602-0.60857-0.023-2.0992-0.0685-3.7124-0.0372z" fill="#fff" stop-color="#000000" stroke="#000" stroke-width="2"/><path d="m73.683 126.61c-2.1627-0.0652-4.7036 0.88003-7.0001 2.1973s-4.3382 2.946-5.117 4.9475c-0.47377 1.2175-0.08593 2.4894 0.66404 3.9295 0.74992 1.4401 1.9894 3.0274 3.7693 4.5589 3.5598 3.063 9.2892 5.8746 17.5 6.4647 3.4419 0.24735 5.6276-1.2871 7.0642-2.5936 0.33603 2.0815 1.0519 6.5199 1.4376 8.8356 0.20087 1.2058 0.93142 2.4011 1.7658 3.8478 0.83437 1.4467 1.7945 3.0196 2.4686 4.3434 2.5866 5.0796 4.7031 9.7074 4.7031 9.7074l0.0868 0.19017 1.9048-0.22996c1.3488-0.99051 2.224-1.7195 2.5223-2.9016 0.32492-1.2877 0.0381-2.4996-0.26561-4.1078-0.60741-3.2162-1.5658-8.3243-0.11317-18.754 0.43597-3.1302 0.27532-6.0212-0.54106-8.3809-0.81637-2.3597-2.3701-4.2355-4.6059-4.9527-2.0367-0.65329-4.7439-0.57231-7.0507-0.40463-2.0578 0.14958-3.3829 0.36915-3.7285 0.42375-0.3129-0.22817-2.2444-1.6539-5.1697-3.328-3.1505-1.803-6.9841-3.6932-10.295-3.793zm82.221 0c-3.3109 0.0999-7.1444 1.99-10.295 3.793-2.9253 1.6741-4.8568 3.0998-5.1697 3.328-0.3456-0.0546-1.6706-0.27417-3.7285-0.42375-2.3068-0.16768-5.014-0.24866-7.0507 0.40463-2.2358 0.71715-3.7896 2.593-4.6059 4.9527-0.81638 2.3597-0.97702 5.2507-0.54105 8.3809 1.4526 10.43 0.49424 15.538-0.11317 18.754-0.30372 1.6081-0.59054 2.82-0.26562 4.1078 0.29829 1.1821 1.1275 2.1411 2.4763 3.1316h1.9508l0.0868-0.19017s2.1164-4.6278 4.7031-9.7074c0.67412-1.3238 1.6342-2.8967 2.4686-4.3434 0.83436-1.4467 1.5649-2.642 1.7658-3.8478 0.38577-2.3158 1.1016-6.7542 1.4376-8.8356 1.4366 1.3066 3.6222 2.841 7.0642 2.5936 8.211-0.59008 13.94-3.4017 17.5-6.4647 1.7799-1.5315 3.0194-3.1188 3.7693-4.5589 0.74997-1.4401 1.1378-2.7119 0.66405-3.9295-0.77883-2.0015-2.8205-3.6302-5.117-4.9475s-4.8374-2.2625-7.0001-2.1973zm-50.086 52.39c-1.4797-0.0114-2.204 1.7773-0.4036 3.7579 1.1061 1.2168 4.7784 4.0322 5.5304 3.3486 0.75203-0.6836-1.701-4.6071-2.8071-5.8239-0.81837-0.90029-1.6472-1.2774-2.3198-1.2826zm17.853 0c-0.67257 5e-3 -1.5014 0.38232-2.3198 1.2826-1.1061 1.2168-3.5591 5.1403-2.8071 5.8239 0.75205 0.68359 4.4243-2.1318 5.5304-3.3486 1.8004-1.9806 1.0761-3.7694-0.40359-3.7579zm-18.644 13.279c0.0658 4.1066 4.5003 4.9298 9.8206 3.6189 4.0269 1.2523 9.6784 0.86855 9.7131-3.6189z"/><g transform="translate(0 26.142)"><path d="m98.949 127.56c-0.20384 0.63863-1.6307 0.7198-3.0671 0.7632-3.0706 0.0928-7.3856-5.4196-3.68-7.6939 4.2297-2.596 7.9064 3.2984 6.747 6.9307z" fill="#fff" stroke-width="4.0818"/><path d="m97.856 124.78a4.0234 4.4048 0 0 1-4.0234 4.4048 4.0234 4.4048 0 0 1-4.0234-4.4048 4.0234 4.4048 0 0 1 4.0234-4.4048 4.0234 4.4048 0 0 1 4.0234 4.4048z" stroke-width="2.9719"/></g><g transform="matrix(-1 0 0 1 229.59 26.142)"><path d="m98.949 127.56c-0.20384 0.63863-1.6307 0.7198-3.0671 0.7632-3.0706 0.0928-7.3856-5.4196-3.68-7.6939 4.2297-2.596 7.9064 3.2984 6.747 6.9307z" fill="#fff" stroke-width="4.0818"/><path d="m97.856 124.78a4.0234 4.4048 0 0 1-4.0234 4.4048 4.0234 4.4048 0 0 1-4.0234-4.4048 4.0234 4.4048 0 0 1 4.0234-4.4048 4.0234 4.4048 0 0 1 4.0234 4.4048z" stroke-width="2.9719"/></g></g></g></svg>