<?xml version='1.0' encoding='utf-8'?>
<svg xmlns="http://www.w3.org/2000/svg" viewBox="0 0 304.38 357.66"> <g fill-rule="evenodd"> <path transform="rotate(4.8992 146.74 160.33)" d="m255.9 31.877-141.44 155.71c-26.016 27.804-33.49 24.204-53.826 39.414l-49.639 52.913 32.891 23.754 47.246-53.183c17.542-23.757 8.1705-26.725 36.482-57.501l137.1-154.24 9.682 7.5356 7.979-8.5375-28.608-20.742-7.508 7.3761 9.626 7.4955"/> <path transform="rotate(269.44 159.69 166.33)" d="m268.9 37.877-141.44 155.71c-26.016 27.804-33.49 24.204-53.826 39.414l-49.639 52.913 32.891 23.754 47.247-53.183c17.542-23.757 8.17-26.725 36.481-57.501l137.1-154.24 9.682 7.5356 7.979-8.5375-28.608-20.742-7.508 7.3761 9.626 7.4955"/> </g> </svg>