<?xml version='1.0' encoding='utf-8'?>
<svg xmlns="http://www.w3.org/2000/svg" width="1093.6mm" height="1093.6mm" clip-rule="evenodd" fill-rule="evenodd" image-rendering="optimizeQuality" shape-rendering="geometricPrecision" text-rendering="geometricPrecision" version="1.1" viewBox="0 0 109369 109369"> <polygon points="-0 109369 109369 109369 109369 0 -0 0" fill="#fff"/> <path d="m23680 42155h62008c2367.8 0 4304.6 1936.9 4304.6 4304.2v36437c0 2367.4-1936.8 4304.2-4304.6 4304.2h-62008c-2367.4 0-4304.2-1936.8-4304.2-4304.2v-36437c0-2367.3 1936.8-4304.2 4304.2-4304.2z" fill="#2D3436"/> <path d="m31839 49394h34175c2710 0 4927.3 2217.3 4927.3 4927.4v22900c0 2710-2217.2 4927.3-4927.3 4927.3h-34175c-2710 0-4927.4-2217.2-4927.4-4927.3v-22900c0-2710 2217.3-4927.4 4927.4-4927.4z" fill="#fff"/> <path d="m81610 46728c2945.8 0 5334.5 2388.2 5334.5 5334.3 0 2946.2-2388.7 5334.4-5334.5 5334.4-2946.5 0-5334.5-2388.2-5334.5-5334.4 0-2946.1 2387.9-5334.3 5334.5-5334.3z" fill="#fff"/> <path d="m77675 59852h7870.8c955.32 0 1737.6 781.93 1737.6 1737.6v1181.6c0 955.77-782.3 1737.7-1737.6 1737.7h-7870.8c-956.07 0-1737.6-781.93-1737.6-1737.7v-1181.6c0-955.7 781.56-1737.6 1737.6-1737.6z" fill="#fff"/> <path d="m31257 22423c464.76-388.55 1162.5-325.15 1550.5 139.46l16713 20020c388.02 464.69 325.22 1162.4-139.54 1550.4-464.76 388.03-1162.5 325.15-1550.4-139.61l-16713-20020c-388.03-464.61-325.15-1162.6 139.53-1550.4z" fill="#2D3436"/> <path d="m69429 24693c-417.93-438.51-1118.3-454.91-1556.3-36.54l-18867 18004c-437.99 417.93-454.39 1118.2-36.46 1556.2v0.08c417.93 437.98 1118.3 454.39 1556.3 36.39l18867-18004c437.99-418.37 454.4-1118.6 36.4-1556.4z" fill="#2D3436"/> <path d="m77675 65610h7870.8c955.32 0 1737.6 782.01 1737.6 1737.7v1181.6c0 955.77-782.3 1737.7-1737.6 1737.7h-7870.8c-956.07 0-1737.6-781.94-1737.6-1737.7v-1181.6c0-955.69 781.56-1737.7 1737.6-1737.7z" fill="#fff"/> <path d="m77675 71537h7870.8c955.32 0 1737.6 781.93 1737.6 1737.6v1181.6c0 955.76-782.3 1737.7-1737.6 1737.7h-7870.8c-956.07 0-1737.6-781.94-1737.6-1737.7v-1181.6c0-955.69 781.56-1737.6 1737.6-1737.6z" fill="#fff"/> <path d="m77675 77492h7870.8c955.32 0 1737.6 781.93 1737.6 1737.6v1181.7c0 955.7-782.3 1737.6-1737.6 1737.6h-7870.8c-956.07 0-1737.6-781.93-1737.6-1737.6v-1181.7c0-955.69 781.56-1737.6 1737.6-1737.6z" fill="#fff"/> </svg>