<?xml version='1.0' encoding='utf-8'?>
<svg xmlns:xlink="http://www.w3.org/1999/xlink" xmlns="http://www.w3.org/2000/svg" width="210mm" height="297mm" version="1.1" viewBox="0 0 210 297"> <rect x="1696.7" y="-756.43" width="793.75" height="793.75" fill="#fff" style="paint-order:stroke fill markers"/> <g transform="matrix(.52941 0 0 .52941 1609.2 -258.72)"> <path d="m915.54-504.27c-109.63 0-203.79 89.112-198.7 199.2l3.1426 67.996a10.584 10.584 0 0 0 6.209 9.1543c127.73 57.805 256.81 56.113 384.37 0.0469a10.584 10.584 0 0 0 6.3125-10.178l-3.1425-67.996c-0.1267-109.25-88.868-198.07-198.18-198.22a10.584 10.584 0 0 0-0.0156 0zm-0.0137 21.166h0.0137c98.034 0.13877 177.17 79.493 177.04 177.53a10.584 10.584 0 0 0 0.012 0.50196l2.7989 60.568c-118.7 50.361-236.03 51.691-354.57-0.20313l-2.8359-61.342c-4.5056-97.487 79.373-177.05 177.54-177.05z" color="#000000" stroke-linecap="round" stroke-linejoin="round" stroke-width="1.8889" style="-inkscape-stroke:none;paint-order:stroke fill markers"/> <path d="m410.98-109.46c26.047 27.666 94.698 94.551 195.59 149.57a83.903 45.605 21.503 0 0-0.0269 0.05736 83.903 45.605 21.503 0 0 61.346 73.186 83.903 45.605 21.503 0 0 94.287-10.625c48.033 12.69 99.959 20.463 155.25 20.597 55.676 0.13505 107.71-7.4908 155.66-20.112a45.605 83.903 68.497 0 0 94.108 10.14 45.605 83.903 68.497 0 0 61.346-73.186 45.605 83.903 68.497 0 0-0.027-0.05736c98.676-54.779 165.01-121.31 190.41-149.19-447.43 102.46-924.13 16.31-1007.9-0.38033z" stroke-linecap="round" stroke-linejoin="round" stroke-width="2.4988" style="paint-order:stroke fill markers"/> <path d="m703.04-238.7c-3.7679 1.8276-7.5203 3.5882-11.192 4.6163-12.484 3.4958-24.841 7.1435-37.011 10.896s-24.155 7.6104-35.893 11.526c-11.738 3.9161-23.231 7.8903-34.418 11.877-11.187 3.9865-22.069 7.9853-32.587 11.949-10.517 3.9638-20.67 7.8929-30.399 11.741-9.7285 3.848-19.033 7.6146-27.854 11.254-17.642 7.2781-33.349 14.046-46.647 19.929-1.3287 0.58788-1.9362 0.89154-3.2163 1.4614-11.531 5.1333-21.769 9.7958-28.972 13.166 10.237 2.03 26.631 5.1479 48.347 8.8511 10.858 1.8516 23.047 3.8495 36.462 5.9309s28.057 4.2467 43.821 6.4322 32.65 4.3912 50.554 6.5552c5.7304 0.69259 12.2 1.335 18.135 2.0169 12.61 1.4486 25.04 2.9143 38.527 4.2855 19.836 2.0167 40.586 3.9283 62.145 5.672 21.559 1.7438 43.928 3.3197 67.003 4.6648 23.074 1.3452 46.854 2.4595 71.235 3.2804 12.19 0.41044 24.531 0.74775 37.009 1.0036 10.776 0.22092 21.701 0.35078 32.673 0.44545 1.7327 0.01495 3.4221 0.05863 5.1594 0.07028 12.739 0.08546 25.603 0.08199 38.578-0.0186s26.061-0.29813 39.246-0.60048c13.184-0.30235 26.467-0.70956 39.834-1.2294 13.368-0.51982 26.82-1.1523 40.345-1.9053 13.525-0.75301 27.122-1.6269 40.778-2.6288s27.372-2.1317 41.133-3.3982 27.569-2.6695 41.409-4.2163 27.714-3.2375 41.608-5.0803 27.807-3.8378 41.728-5.9924 27.848-4.469 41.77-6.951c13.921-2.482 27.838-5.1315 41.734-7.9566s27.774-5.8258 41.619-9.0098c-7.1627-3.4121-17.313-8.125-28.96-13.393-1.009-0.45641-1.4692-0.69218-2.5089-1.1601-13.041-5.8698-28.48-12.633-45.85-19.915-8.6852-3.6408-17.854-7.4113-27.447-11.264-9.5932-3.8532-19.611-7.7894-29.996-11.761-10.385-3.9717-21.137-7.979-32.198-11.976-11.061-3.9965-22.43-7.9824-34.05-11.91-11.62-3.9275-23.491-7.7968-35.554-11.562-12.063-3.7648-24.319-7.4249-36.71-10.933-2.8719-0.81318-5.7941-2.0927-8.7328-3.484-0.1059 10.5-6.7304 20.727-16.365 24.963a16.844 16.844 0 0 1 0 2e-3c-131.28 57.7-266.36 59.49-398.09-0.12299a16.844 16.844 0 0 1-2e-3 0c-9.1588-4.1451-15.624-13.678-16.088-23.721z" stroke-linecap="round" stroke-linejoin="round" stroke-width="39.982" style="paint-order:stroke fill markers"/> <g transform="translate(18.597 -1.0475)" stroke-width="1.8889"> <circle id="b" cx="604.95" cy="-161.84" r="21.474" fill="#fff" style="paint-order:stroke fill markers"/> <use id="a" transform="translate(291.74 37.711)" stroke-width="1.8889" xlink:href="#b"/> <use transform="translate(291.74 -31.426)" stroke-width="1.8889" xlink:href="#a"/> </g> </g> <path d="m1893-288.46-1.0664 5.1816 3.539 0.72852 1.6524 0.33398 1.0527-5.1855-1.6465-0.33399zm402.84 0.70313c-1.7122 0.40321-3.4248 0.80243-5.1387 1.1953l1.1836 5.1582c1.7248-0.39538 3.4464-0.79769 5.168-1.2031zm-382.11 3.4199-1 5.1953c1.7395 0.33469 3.4776 0.66301 5.2149 0.98633l0.9687-5.2031c-1.7309-0.32212-3.4588-0.64665-5.1836-0.97851zm361.51 1.1836c-1.7207 0.36423-3.4422 0.7251-5.1641 1.0781l1.0645 5.1836c1.7339-0.3555 3.4646-0.71764 5.1953-1.084zm-340.73 2.6133-0.916 5.2109c1.7456 0.30665 3.4906 0.60573 5.2324 0.90039l0.8829-5.2188c-1.7366-0.29376-3.4703-0.58885-5.1993-0.89258zm320.04 1.5117c-1.7274 0.32342-3.4565 0.64064-5.1875 0.95313l0.9394 5.207c1.7407-0.31425 3.4826-0.63318 5.2227-0.95899zm-299.2 1.9316-0.8145 5.2285c1.744 0.27184 3.4908 0.54424 5.2422 0.80859l0.791-5.2324c-1.7368-0.26216-3.477-0.5332-5.2187-0.80469zm278.42 1.6895c-1.7351 0.28077-3.4716 0.55521-5.209 0.82422l0.8105 5.2285c1.7489-0.27078 3.4968-0.54732 5.2442-0.83008zm-257.52 1.3809-0.7227 5.2422c1.7528 0.24127 3.5053 0.47718 5.2578 0.70899l0.6934-5.2461c-1.7448-0.23078-3.4865-0.46528-5.2285-0.70507zm236.65 1.7188c-1.7433 0.23623-3.4863 0.46933-5.2285 0.69336l0.6758 5.248c1.7568-0.2259 3.5112-0.45979 5.2637-0.69726zm-215.71 0.94531-0.6172 5.2559c1.7569 0.20627 3.5154 0.40734 5.2735 0.60351l0.5859-5.2578c-1.748-0.19505-3.4954-0.39647-5.2422-0.60156zm194.77 1.6211c-1.7474 0.19159-3.4958 0.37732-5.2441 0.55664l0.5391 5.2637c1.761-0.18062 3.5219-0.36765 5.2812-0.56054zm-173.77 0.61719-0.5059 5.2676c1.7609 0.16923 3.5229 0.33158 5.2852 0.49023l0.4746-5.2695c-1.7513-0.15766-3.5032-0.32003-5.2539-0.48828zm152.77 1.4043c-1.7503 0.14634-3.5019 0.28551-5.2559 0.41992l0.4043 5.2773c1.7635-0.13513 3.5278-0.27623 5.293-0.42383zm-131.74 0.3789-0.3906 5.2774c1.765 0.13052 3.53 0.25365 5.2949 0.37304l0.3574-5.2793c-1.7548-0.11872-3.5086-0.24146-5.2617-0.3711zm110.69 1.0938c-1.7542 0.10035-3.5096 0.1932-5.2657 0.28125l0.2657 5.2852c1.7672-0.0886 3.5349-0.18208 5.3027-0.2832zm-89.629 0.21094-0.2676 5.2852c1.768 0.0896 3.5339 0.17361 5.3008 0.25195l0.2343-5.2871c-1.7574-0.0779-3.5123-0.16107-5.2675-0.25zm68.553 0.71094c-1.7577 0.0541-3.515 0.10265-5.2715 0.14453l0.127 5.291c1.7703-0.0422 3.5402-0.092 5.3086-0.14648zm-47.467 0.0976-0.1387 5.2891c1.7685 0.0464 3.5365 0.0884 5.3067 0.12304l0.1035-5.291c-1.757-0.0344-3.5134-0.0749-5.2715-0.1211zm26.373 0.2793c-1.7582 9e-3 -3.5178 0.0125-5.2753 0.01l-0.01 5.291c1.7703 3e-3 3.5411-5.2e-4 5.3106-0.01z" color="#000000" fill="#fff" stroke-dasharray="5.29167, 15.875" style="-inkscape-stroke:none"/> </svg>